<svg width="128" height="128" viewBox="0 0 128 128" fill="none" xmlns="http://www.w3.org/2000/svg">
<path d="M99.2 35.3087C91.52 35.3087 84.2667 38.2954 79.0933 43.4687L64 56.8554L55.8933 64.0021H55.9467L41.6 76.7487C38.1867 80.1621 33.6533 82.0287 28.8 82.0287C18.8267 82.0287 10.72 73.9754 10.72 64.0021C10.72 54.0287 18.8267 45.9754 28.8 45.9754C33.6533 45.9754 38.1867 47.8421 41.8133 51.4687L10.72 84.5354L55.8933 49.6554L49.1733 43.7354C46.5025 41.0545 43.3269 38.9294 39.83 37.4831C36.3331 36.0367 32.5842 35.2977 28.8 35.3087C12.9067 35.3087 0 48.2154 0 64.0021C0 79.7887 12.9067 92.6954 28.8 92.6954C36.48 92.6954 43.7333 89.7087 48.9067 84.5354L64 71.2021L64.0533 71.2554L72.1067 64.0021H72.0533L86.4 51.2554C89.8133 47.842 94.3467 45.9754 99.2 45.9754C109.173 45.9754 117.28 54.0287 117.28 64.0021C117.28 73.9754 109.173 82.0287 99.2 82.0287C94.4 82.0287 89.8133 80.1621 86.1867 76.5354L121.628 45.9754L72.0533 78.2954L78.8267 84.2687C84.24 89.6492 91.5677 92.6608 99.2 92.6421C115.093 92.6421 128 79.7887 128 63.9487C128 48.1087 115.093 35.3087 99.2 35.3087Z" fill="#040322"/>
</svg>
